<svg xmlns="http://www.w3.org/2000/svg" viewBox="0 0 154 154" fill="none">
  <circle cx="77" cy="77" r="77" fill="#05998B"/>
  <path d="M53.6953 91.3133V62.6867H61.0156V84.5805H73.1758V91.3133H53.6953Z" fill="white"/>
  <path d="M101.414 62.6867L93.8516 91.3133H84.5898L81.5234 79.2773C81.1562 77.918 80.8672 76.4805 80.6562 74.9648C80.4453 76.4805 80.1562 77.918 79.7891 79.2773L76.7227 91.3133H67.4609L59.8984 62.6867H67.2188L70.1953 76.2422C70.5625 78.0625 70.8516 79.832 71.0625 81.5508C71.2734 79.832 71.5625 78.0625 71.9297 76.2422L75.5156 62.6867H85.5469L89.1328 76.2422C89.5 78.0625 89.7891 79.832 90 81.5508C90.2109 79.832 90.5 78.0625 90.8672 76.2422L93.8438 62.6867H101.414Z" fill="white"/>
</svg>
