<svg xmlns="http://www.w3.org/2000/svg" viewBox="0 0 100 100">
  <circle cx="50" cy="50" r="48" fill="#2D3E50"/>
  <path fill="#FFF" d="M50 15c-19.33 0-35 15.67-35 35s15.67 35 35 35 35-15.67 35-35-15.67-35-35-35zm0 65c-16.54 0-30-13.46-30-30s13.46-30 30-30 30 13.46 30 30-13.46 30-30 30z"/>
  <path fill="#FFF" d="M50 25c-13.81 0-25 11.19-25 25s11.19 25 25 25 25-11.19 25-25-11.19-25-25-25zm-5 35H35V40h10v20zm17.5 0h-10V40h10v20z"/>
  <text x="50" y="58" text-anchor="middle" fill="#FFF" font-size="16" font-weight="bold" font-family="Arial, sans-serif">CV</text>
</svg>
