<svg xmlns="http://www.w3.org/2000/svg" viewBox="0 0 256 289">
  <path fill="#539E43" d="M128 288.464c-3.975 0-7.685-1.06-11.13-2.915l-35.247-20.936c-5.3-2.915-2.65-3.975-1.06-4.505 7.155-2.385 8.48-2.915 15.9-7.155.795-.53 1.855-.265 2.65.265l27.032 16.166c1.06.53 2.385.53 3.18 0l105.74-61.217c1.06-.53 1.59-1.59 1.59-2.915V83.08c0-1.325-.53-2.385-1.59-2.915l-105.74-61.217c-1.06-.53-2.385-.53-3.18 0L20.49 80.165c-1.06.53-1.59 1.855-1.59 2.915v122.17c0 1.06.53 2.385 1.59 2.915l28.887 16.695c15.635 7.95 25.44-1.325 25.44-10.6V93.68c0-1.59 1.325-3.18 3.18-3.18h13.515c1.59 0 3.18 1.325 3.18 3.18v120.58c0 20.936-11.395 33.126-31.27 33.126-6.095 0-10.865 0-24.38-6.625l-27.826-15.9C4.24 220.356 0 212.406 0 203.985V81.55c0-8.215 4.24-16.165 11.13-20.41L116.87 0c6.625-3.71 15.635-3.71 22.26 0l105.74 61.217c6.89 3.975 11.13 12.195 11.13 20.41v122.435c0 8.215-4.24 16.165-11.13 20.41l-105.74 61.217c-3.445 1.59-7.42 2.65-11.13 2.775zm32.595-84.345c-46.377 0-55.917-21.2-55.917-39.25 0-1.59 1.325-3.18 3.18-3.18h13.78c1.59 0 2.915 1.06 2.915 2.65 2.12 14.045 8.215 20.936 36.307 20.936 22.26 0 31.8-5.035 31.8-16.96 0-6.89-2.65-11.925-37.367-15.37-28.887-2.915-46.907-9.275-46.907-32.33 0-21.466 18.02-34.186 48.232-34.186 33.92 0 50.615 11.66 52.735 37.102 0 .795-.265 1.59-.795 2.385-.53.53-1.325 1.06-2.12 1.06h-13.78c-1.325 0-2.65-1.06-2.915-2.385-3.18-14.575-11.395-19.345-33.125-19.345-24.38 0-27.296 8.48-27.296 14.84 0 7.685 3.445 10.07 36.307 14.31 32.595 4.24 47.966 10.335 47.966 33.126-.265 23.175-19.345 36.572-52.999 36.572z"/>
</svg>
